<svg width="643" height="804" viewBox="0 0 643 804" fill="none" xmlns="http://www.w3.org/2000/svg">
<path d="M67 -16C36.73 -9.47002 12.57 15.12 3.55998 44.32C-5.77002 74.57 3.65998 106.32 26.95 127.52C49.44 147.97 82.95 157.62 112.05 146.44C139.27 135.98 162.92 106.15 149.78 76.33C138.68 51.15 105.78 36.43 80.08 47.42C54.38 58.41 41.89 89.17 46.59 115.73C52.53 149.24 85.09 167.73 114.86 177.1C150.92 188.52 192.93 190.2 222.47 216.48C245.76 237.2 257.18 269.48 254.86 300.31C253.799 315.76 248.901 330.7 240.61 343.78C231.44 357.97 215.79 370.12 198.53 371.78C179.33 373.63 165.53 358.9 164.14 340.41C162.63 320.08 174.95 302.31 186.66 286.88C209.03 257.42 237.66 228.09 274.82 219.01C307.73 211.01 347.31 220.07 364.76 251.4C384.54 286.92 370.46 329.31 349.49 360.65C338.11 377.65 324.58 393.16 311.26 408.65C297.72 424.4 284.06 440.07 271.26 456.46C247.04 487.54 225.91 521.65 216.8 560.39C208.25 596.73 210.8 635.81 230.97 668C249.71 698 279.97 719.17 312.15 732.74C352.35 749.74 396.05 756.42 438.65 764.56L575.29 790.68L640.81 803.2C642.22 803.47 642.81 801.31 641.41 801.03L506.41 775.22C462.49 766.83 418.26 759.4 374.64 749.56C335.81 740.79 296.86 728.02 265.43 702.75C251.51 691.56 239.27 678.13 230.38 662.57C220.836 645.573 215.414 626.574 214.55 607.1C210.2 522.39 272.94 457.48 323.67 397.59C347.83 369.05 372.67 337.27 375.99 298.59C377.44 281.87 374.79 264.39 366.4 249.68C358.671 236.406 346.723 226.1 332.46 220.4C301.68 207.75 267.01 214.62 239.63 232.05C224.33 241.82 211 254.4 199.1 268C186.95 281.9 174.24 297.17 166.86 314.22C160.58 328.74 159.15 346.63 168.41 360.29C176.69 372.49 191.35 376.35 205.22 372.86C235.43 365.26 252.88 334.67 256.57 305.61C260.22 276.79 251.79 246.24 232.95 224C208.95 195.71 171.49 188.92 137.24 180.78C104.8 173.08 64.97 160.09 51.74 125.9C41.17 98.59 52.51 62.4 80.01 49.9C107.79 37.25 145.65 56.9 150.73 87.19C156.83 123.49 117.17 149.29 85.12 148.92C53.07 148.55 21.73 127.92 8.51998 98.7C-5.21002 68.28 4.42998 32.28 27.16 8.93998C38.0938 -2.45784 52.1528 -10.3693 67.57 -13.8C69 -14.11 68.38 -16.27 67 -16Z" fill="#D1ECFD"/>
</svg>
